<svg width="512" height="512" xmlns="http://www.w3.org/2000/svg">
  <rect width="512" height="512" rx="110" fill="#f5d5d8"/>
  
  <!-- M Burger Logo - Simplified burger M -->
  <g transform="translate(256, 256)">
    <!-- Top bun -->
    <ellipse cx="0" cy="-80" rx="120" ry="30" fill="#D4A574"/>
    
    <!-- M arches (like McDonald's golden arches forming an M) -->
    <path d="M -90,-60 Q -90,-20 -90,20 L -70,20 L -70,-40 Q -70,-55 -50,-60 Q -30,-65 0,-50 Q 30,-65 50,-60 Q 70,-55 70,-40 L 70,20 L 90,20 L 90,-60 Q 90,-20 90,20 L 90,20 Q 70,-10 50,-20 Q 30,-30 0,-35 Q -30,-30 -50,-20 Q -70,-10 -90,20 Z" fill="#FFC72C"/>
    
    <!-- Lettuce -->
    <rect x="-100" y="25" width="200" height="15" fill="#7CB342" rx="3"/>
    
    <!-- Patty -->
    <rect x="-110" y="45" width="220" height="25" fill="#6D4C41" rx="5"/>
    
    <!-- Cheese -->
    <path d="M -115,72 L -105,82 L 105,82 L 115,72 Z" fill="#FFA000"/>
    
    <!-- Bottom bun -->
    <rect x="-120" y="85" width="240" height="20" fill="#D4A574" rx="3"/>
  </g>
</svg>