<svg width="512" height="512" xmlns="http://www.w3.org/2000/svg">
  <rect width="512" height="512" rx="110" fill="#f5d5d8"/>
  
  <!-- M Burger Logo - Simplified burger M (BIGGER - 75% of icon space) -->
  <g transform="translate(256, 256)">
    <!-- Top bun -->
    <ellipse cx="0" cy="-115" rx="170" ry="42" fill="#D4A574"/>
    
    <!-- M arches (like McDonald's golden arches forming an M) -->
    <path d="M -130,-85 Q -130,-28 -130,28 L -100,28 L -100,-56 Q -100,-78 -72,-85 Q -43,-92 0,-72 Q 43,-92 72,-85 Q 100,-78 100,-56 L 100,28 L 130,28 L 130,-85 Q 130,-28 130,28 L 130,28 Q 100,-14 72,-28 Q 43,-42 0,-50 Q -43,-42 -72,-28 Q -100,-14 -130,28 Z" fill="#FFC72C"/>
    
    <!-- Lettuce -->
    <rect x="-145" y="35" width="290" height="22" fill="#7CB342" rx="4"/>
    
    <!-- Patty -->
    <rect x="-160" y="63" width="320" height="36" fill="#6D4C41" rx="7"/>
    
    <!-- Cheese -->
    <path d="M -167,102 L -152,118 L 152,118 L 167,102 Z" fill="#FFA000"/>
    
    <!-- Bottom bun -->
    <rect x="-175" y="122" width="350" height="28" fill="#D4A574" rx="4"/>
  </g>
</svg>